<?xml version="1.0" standalone="no"?>
<!DOCTYPE svg PUBLIC "-//W3C//DTD SVG 20010904//EN"
 "http://www.w3.org/TR/2001/REC-SVG-20010904/DTD/svg10.dtd">
<svg version="1.0" xmlns="http://www.w3.org/2000/svg"
 width="640.000000pt" height="640.000000pt" viewBox="0 0 640.000000 640.000000"
 preserveAspectRatio="xMidYMid meet">
<metadata>
Created by potrace 1.14, written by Peter Selinger 2001-2017
</metadata>
<g transform="translate(0.000000,640.000000) scale(0.100000,-0.100000)"
fill="#000000" stroke="none">
<path d="M3189 6242 c-1 -12 -2 -25 -3 -29 -1 -5 -6 -28 -10 -53 -11 -60 -11
-58 -35 -190 -29 -158 -117 -641 -131 -720 -7 -36 -13 -72 -15 -80 -2 -8 -6
-39 -10 -68 -8 -60 -25 -82 -62 -82 -79 0 -427 -99 -550 -156 -176 -81 -416
-250 -558 -391 -286 -283 -471 -631 -552 -1036 -23 -119 -30 -138 -47 -142
-12 -3 -100 -19 -196 -36 -96 -17 -233 -41 -305 -54 -181 -34 -174 -32 -335
-61 -79 -14 -147 -27 -150 -29 -3 -2 -29 -6 -57 -10 -29 -3 -67 -11 -85 -16
-18 -5 -46 -9 -62 -9 -47 0 -27 -7 64 -24 47 -8 96 -17 110 -20 14 -3 90 -16
170 -30 80 -14 206 -36 280 -50 74 -14 149 -28 165 -30 235 -42 417 -76 423
-80 4 -2 9 -19 10 -38 1 -18 7 -55 12 -83 6 -27 12 -59 14 -70 16 -81 63 -238
91 -300 7 -16 21 -50 31 -75 10 -24 35 -75 56 -114 21 -38 38 -71 38 -73 0 -2
31 -50 69 -107 279 -415 679 -697 1166 -820 86 -22 213 -45 251 -46 16 0 22
-18 45 -140 27 -136 26 -133 44 -220 8 -41 17 -85 19 -96 12 -61 97 -492 102
-513 6 -29 11 -25 19 19 3 19 35 181 71 360 36 179 68 334 70 345 2 11 13 70
26 131 l22 111 100 16 c164 27 248 49 395 103 537 199 961 629 1151 1165 43
123 86 289 96 372 4 30 9 59 13 64 3 5 101 26 216 47 192 34 266 47 425 76 30
6 141 26 245 45 105 18 204 36 220 39 33 7 90 16 117 20 24 3 31 12 10 13 -26
2 -552 96 -687 122 -27 6 -77 15 -110 21 -33 5 -71 12 -85 15 -14 3 -93 17
-177 32 -84 14 -157 29 -163 33 -9 5 -16 36 -34 142 -11 67 -61 241 -93 328
-135 364 -417 722 -736 934 -97 65 -326 184 -402 210 -175 59 -235 75 -384
100 -46 8 -85 16 -86 18 -3 3 -43 217 -79 423 -2 11 -18 99 -36 195 -18 96
-34 184 -36 195 -13 75 -39 216 -54 304 -19 104 -29 133 -31 93z m-2134 -3162
c-3 -5 -12 -10 -18 -10 -7 0 -6 4 3 10 19 12 23 12 15 0z m35 6 c0 -3 -4 -8
-10 -11 -5 -3 -10 -1 -10 4 0 6 5 11 10 11 6 0 10 -2 10 -4z m121 -5 c-8 -5
-23 -8 -34 -5 -33 6 -29 11 10 12 26 1 33 -1 24 -7z"/>
</g>
</svg>
